<svg width="175" height="175" viewBox="0 0 175 175" fill="none" xmlns="http://www.w3.org/2000/svg">
<path d="M145.833 29.1667H29.1663C21.1455 29.1667 14.583 35.7292 14.583 43.75V131.25C14.583 139.271 21.1455 145.833 29.1663 145.833H145.833C153.854 145.833 160.416 139.271 160.416 131.25V43.75C160.416 35.7292 153.854 29.1667 145.833 29.1667ZM142.916 60.1562L95.2288 89.9792C90.4893 92.9687 84.5101 92.9687 79.7705 89.9792L32.083 60.1562C31.3519 59.7458 30.7116 59.1913 30.2009 58.5262C29.6903 57.8612 29.3199 57.0994 29.1122 56.2871C28.9045 55.4747 28.8638 54.6287 28.9925 53.8001C29.1212 52.9716 29.4167 52.1778 29.8611 51.4668C30.3055 50.7557 30.8895 50.1423 31.5779 49.6635C32.2662 49.1847 33.0446 48.8506 33.8658 48.6813C34.687 48.5121 35.534 48.5112 36.3556 48.6788C37.1772 48.8463 37.9562 49.1789 38.6455 49.6562L87.4997 80.2083L136.354 49.6562C137.043 49.1789 137.822 48.8463 138.644 48.6788C139.465 48.5112 140.312 48.5121 141.134 48.6813C141.955 48.8506 142.733 49.1847 143.421 49.6635C144.11 50.1423 144.694 50.7557 145.138 51.4668C145.583 52.1778 145.878 52.9716 146.007 53.8001C146.136 54.6287 146.095 55.4747 145.887 56.2871C145.679 57.0994 145.309 57.8612 144.798 58.5262C144.288 59.1913 143.647 59.7458 142.916 60.1562Z" fill="black"/>
</svg>
