<svg width="175" height="175" viewBox="0 0 175 175" fill="none" xmlns="http://www.w3.org/2000/svg">
<path d="M87.5002 14.5833C77.9246 14.5833 68.4428 16.4694 59.5962 20.1338C50.7495 23.7982 42.7112 29.1692 35.9403 35.9401C22.2658 49.6147 14.5835 68.1613 14.5835 87.5C14.5835 119.729 35.5106 147.073 64.4585 156.771C68.1043 157.354 69.271 155.094 69.271 153.125V140.802C49.0731 145.177 44.771 131.031 44.771 131.031C41.4168 122.573 36.6772 120.312 36.6772 120.312C30.0418 115.792 37.1877 115.938 37.1877 115.938C44.4793 116.448 48.3439 123.448 48.3439 123.448C54.6877 134.531 65.4064 131.25 69.5627 129.5C70.2189 124.76 72.1147 121.552 74.1564 119.729C57.9689 117.906 40.9793 111.635 40.9793 83.8542C40.9793 75.7604 43.7502 69.2708 48.4897 64.0938C47.7606 62.2708 45.2085 54.6875 49.2189 44.8438C49.2189 44.8438 55.3439 42.875 69.271 52.2813C75.0314 50.6771 81.3022 49.875 87.5002 49.875C93.6981 49.875 99.9689 50.6771 105.729 52.2813C119.656 42.875 125.781 44.8438 125.781 44.8438C129.792 54.6875 127.24 62.2708 126.511 64.0938C131.25 69.2708 134.021 75.7604 134.021 83.8542C134.021 111.708 116.958 117.833 100.698 119.656C103.323 121.917 105.729 126.365 105.729 133.146V153.125C105.729 155.094 106.896 157.427 110.615 156.771C139.563 147 160.417 119.729 160.417 87.5C160.417 77.9244 158.531 68.4427 154.866 59.596C151.202 50.7493 145.831 42.7111 139.06 35.9401C132.289 29.1692 124.251 23.7982 115.404 20.1338C106.558 16.4694 97.0757 14.5833 87.5002 14.5833Z" fill="black"/>
</svg>
