<svg width="175" height="175" viewBox="0 0 175 175" fill="none" xmlns="http://www.w3.org/2000/svg">
<path d="M138.542 21.875C142.409 21.875 146.119 23.4115 148.854 26.1464C151.589 28.8813 153.125 32.5906 153.125 36.4583V138.542C153.125 142.409 151.589 146.119 148.854 148.854C146.119 151.589 142.409 153.125 138.542 153.125H36.4583C32.5906 153.125 28.8813 151.589 26.1464 148.854C23.4115 146.119 21.875 142.409 21.875 138.542V36.4583C21.875 32.5906 23.4115 28.8813 26.1464 26.1464C28.8813 23.4115 32.5906 21.875 36.4583 21.875H138.542ZM134.896 134.896V96.25C134.896 89.9456 132.391 83.8994 127.934 79.4415C123.476 74.9836 117.429 72.4792 111.125 72.4792C104.927 72.4792 97.7083 76.2708 94.2083 81.9583V73.8646H73.8646V134.896H94.2083V98.9479C94.2083 93.3333 98.7292 88.7396 104.344 88.7396C107.051 88.7396 109.648 89.8151 111.562 91.7295C113.477 93.644 114.552 96.2405 114.552 98.9479V134.896H134.896ZM50.1667 62.4167C53.4156 62.4167 56.5314 61.126 58.8287 58.8287C61.126 56.5314 62.4167 53.4156 62.4167 50.1667C62.4167 43.3854 56.9479 37.8438 50.1667 37.8438C46.8984 37.8438 43.764 39.1421 41.453 41.453C39.1421 43.764 37.8438 46.8984 37.8438 50.1667C37.8438 56.9479 43.3854 62.4167 50.1667 62.4167ZM60.3021 134.896V73.8646H40.1042V134.896H60.3021Z" fill="black"/>
</svg>
