<svg width="175" height="175" viewBox="0 0 175 175" fill="none" xmlns="http://www.w3.org/2000/svg">
<path d="M48.2708 78.6771C58.7708 99.3125 75.6875 116.229 96.3229 126.729L112.365 110.688C114.406 108.646 117.25 108.062 119.802 108.865C127.969 111.562 136.719 113.021 145.833 113.021C147.767 113.021 149.622 113.789 150.989 115.157C152.357 116.524 153.125 118.379 153.125 120.312V145.833C153.125 147.767 152.357 149.622 150.989 150.989C149.622 152.357 147.767 153.125 145.833 153.125C112.958 153.125 81.4282 140.065 58.1816 116.818C34.9349 93.5717 21.875 62.0425 21.875 29.1667C21.875 27.2328 22.6432 25.3781 24.0107 24.0107C25.3781 22.6432 27.2328 21.875 29.1667 21.875H54.6875C56.6214 21.875 58.476 22.6432 59.8435 24.0107C61.2109 25.3781 61.9792 27.2328 61.9792 29.1667C61.9792 38.2812 63.4375 47.0312 66.1354 55.1979C66.9375 57.75 66.3542 60.5938 64.3125 62.6354L48.2708 78.6771Z" fill="black"/>
</svg>
