<svg width="95" height="95" viewBox="0 0 95 95" fill="none" xmlns="http://www.w3.org/2000/svg">
<path d="M75.4062 19.4355C71.7767 15.7705 67.454 12.8645 62.6901 10.8869C57.9262 8.9093 52.8164 7.89963 47.6583 7.91672C26.0458 7.91672 8.43123 25.5313 8.43123 47.1438C8.43123 54.0709 10.2521 60.8001 13.6562 66.7376L8.11456 87.0834L28.8958 81.6209C34.6354 84.748 41.0875 86.4105 47.6583 86.4105C69.2708 86.4105 86.8854 68.7959 86.8854 47.1834C86.8854 36.6938 82.8083 26.8375 75.4062 19.4355ZM47.6583 79.7605C41.8 79.7605 36.0604 78.1771 31.0333 75.2084L29.8458 74.4959L17.4958 77.7417L20.7812 65.7084L19.9896 64.4813C16.734 59.2842 15.0057 53.2763 15.0021 47.1438C15.0021 29.173 29.6479 14.5271 47.6187 14.5271C56.3271 14.5271 64.5208 17.9313 70.6562 24.1063C73.6947 27.1299 76.1026 30.7268 77.7402 34.6882C79.3777 38.6497 80.2124 42.8968 80.1958 47.1834C80.275 65.1542 65.6291 79.7605 47.6583 79.7605ZM65.55 55.3771C64.5604 54.9021 59.7312 52.5271 58.8604 52.1709C57.95 51.8542 57.3166 51.6959 56.6437 52.6459C55.9708 53.6355 54.1104 55.8521 53.5562 56.4855C53.0021 57.1584 52.4083 57.2376 51.4187 56.723C50.4291 56.248 47.2625 55.1792 43.5416 51.8542C40.6125 49.2417 38.6729 46.0355 38.0791 45.0459C37.525 44.0563 38 43.5417 38.5146 43.0271C38.95 42.5917 39.5041 41.8792 39.9791 41.3251C40.4541 40.7709 40.6521 40.3355 40.9687 39.7021C41.2854 39.0292 41.1271 38.4751 40.8896 38.0001C40.6521 37.5251 38.6729 32.6959 37.8812 30.7167C37.0896 28.8167 36.2583 29.0542 35.6646 29.0146H33.7646C33.0916 29.0146 32.0625 29.2521 31.1521 30.2417C30.2812 31.2313 27.7479 33.6063 27.7479 38.4355C27.7479 43.2646 31.2708 47.9355 31.7458 48.5688C32.2208 49.2417 38.6729 59.1376 48.4896 63.373C50.825 64.4021 52.6458 64.9959 54.0708 65.4313C56.4062 66.1834 58.5437 66.0646 60.2458 65.8271C62.1458 65.55 66.0646 63.4521 66.8562 61.1563C67.6875 58.8605 67.6875 56.9209 67.4104 56.4855C67.1333 56.0501 66.5396 55.8521 65.55 55.3771Z" fill="black"/>
</svg>
